<svg width="80" height="48" fill="none" xmlns="http://www.w3.org/2000/svg"><path d="M40 32.889c2.413-2.159 3.937-5.334 3.937-8.889 0-3.556-1.524-6.667-3.937-8.889C37.905 13.206 35.048 12 32 12c-6.603 0-12 5.397-12 12s5.397 11.937 12 11.937c3.048.063 5.905-1.143 8-3.048z" fill="#07A9E2"/><path d="M20 24c0 6.603 5.397 11.937 12 11.937 3.111 0 5.905-1.143 8-3.112 2.413-2.158 3.937-5.333 3.937-8.889 0-3.555-1.524-6.603-3.937-8.825C37.905 13.206 35.048 12 32 12" fill="#009DDD"/><path d="M40 15.111C37.904 13.206 35.047 12 32 12h-.572c-3.746 2.73-6.159 7.111-6.159 12s2.413 9.27 6.096 11.937h.571c3.111 0 5.905-1.143 8-3.112 2.413-2.158 3.937-5.333 3.937-8.889 0-3.555-1.46-6.603-3.873-8.825z" fill="#0284CC"/><path d="M48.063 12c-3.11 0-5.904 1.143-8.063 3.111-.444.381-.825.825-1.206 1.27h2.412c.318.38.635.825.89 1.27H37.84c-.254.444-.508.825-.698 1.27h5.65c.191.444.382.825.508 1.27h-6.603c-.127.444-.254.825-.38 1.27h7.364c.19.825.254 1.65.254 2.539 0 1.333-.19 2.603-.635 3.81h-6.603c.127.444.318.825.508 1.27h5.651a8.16 8.16 0 01-.698 1.27h-4.254c.254.444.571.888.889 1.269h2.412c-.38.444-.762.889-1.206 1.27C42.159 34.794 44.952 36 48.063 36A11.923 11.923 0 0060 24.064C60 17.397 54.667 12 48.063 12z" fill="#FF2957"/><path d="M48.063 12c-3.11 0-5.904 1.143-8.063 3.111-.444.381-.825.825-1.206 1.27h2.412c.318.38.635.825.89 1.27H37.84c-.254.444-.508.825-.698 1.27h5.65c.191.444.382.825.508 1.27h-6.603c-.127.444-.254.825-.38 1.27h7.364c.19.825.254 1.65.254 2.539 0 1.333-.19 2.603-.635 3.81h-6.603c.127.444.318.825.508 1.27h5.651a8.16 8.16 0 01-.698 1.27h-4.254c.254.444.571.888.889 1.269h2.412c-.38.444-.762.889-1.206 1.27C42.159 34.794 44.952 36 48.063 36A11.923 11.923 0 0060 24.064" fill="#ED1C2E"/><path d="M40 32.889c2.413-2.159 3.937-5.334 3.937-8.889 0-3.556-1.524-6.667-3.937-8.889V32.89z" fill="#0466B5"/><path d="M55.873 26.603c0-.19.19-.38.381-.38.19 0 .381.19.381.38a.41.41 0 01-.381.381.41.41 0 01-.381-.38zm.381.318c.19 0 .254-.127.254-.318 0-.19-.127-.254-.254-.254-.19 0-.317.127-.317.254s.19.318.317.318zm0-.19h-.063v-.318h.19l.063.063c0 .064 0 .064-.063.064l.063.127h-.063l-.063-.127h-.064v.19zm0-.191h.064v-.064h-.064v.064z" fill="#fff"/><path d="M40 15.111c-.444.381-.825.825-1.206 1.27h2.412c.318.38.635.825.89 1.27H37.84c-.254.444-.508.825-.698 1.27h5.65c.191.444.382.825.508 1.27h-6.603c-.127.444-.254.825-.38 1.27h7.364c.19.825.254 1.65.254 2.539 0 1.333-.19 2.603-.635 3.81h-6.603c.127.444.318.825.508 1.27h5.651a8.16 8.16 0 01-.698 1.27h-4.254c.254.444.571.888.889 1.269h2.412c-.38.444-.762.889-1.206 1.27 2.159 1.905 4.952 3.11 8.063 3.11h.572a14.757 14.757 0 006.095-11.936c0-4.889-2.413-9.27-6.095-11.936h-.572C44.953 12 42.16 13.207 40 15.11z" fill="#D1094B"/><path d="M30.476 26.984h-1.524l.89-4.635-2.032 4.635h-1.334l-.254-4.635-.889 4.635H24l1.143-6.095h2.35l.126 3.81 1.65-3.81h2.414l-1.207 6.095z" fill="#fff"/><path d="M29.015 24.317l.889-1.968-.699 3.683c.064.317.127.698.254 1.016h1.016l1.143-6.096h-2.222c-.254.953-.445 2.032-.445 3.111.064.064.064.128.064.255zM47.11 26.92c-.444.128-.697.191-1.078.191-.762 0-1.143-.38-1.143-1.08 0-.126 0-.253.063-.444l.064-.508.063-.38.699-3.747h1.46l-.19 1.143h.761l-.19 1.143h-.762l-.381 2.032c0 .063-.063.19-.063.19 0 .254.19.381.507.381.19 0 .318 0 .381-.063l-.19 1.143zm4.383-4.825c-.127-.063-.127-.063-.19-.063-.064 0-.127 0-.127-.064h-.19c-.509 0-.826.19-1.27.826l.126-.762H48.51l-.889 4.952h1.524c.508-3.048.762-3.556 1.46-3.556h.19l.191.064.508-1.397zm-10.287 1.524c0 .635.381 1.08 1.143 1.333.635.254.699.318.699.572 0 .317-.255.444-.89.444-.444 0-.888-.063-1.333-.19l-.19 1.143h.063l.254.063h.381c.381.063.635.063.826.063 1.587 0 2.349-.507 2.349-1.65 0-.699-.318-1.08-1.08-1.397-.634-.254-.698-.318-.698-.508 0-.254.254-.381.762-.381.254 0 .698 0 1.08.063l.19-1.142c-.381-.064-.953-.064-1.334-.064-1.65 0-2.222.762-2.222 1.65zm-5.903 3.365h-1.207v-.508c-.38.381-.888.572-1.587.572-.825 0-1.333-.572-1.333-1.334 0-1.206.952-1.905 2.603-1.905h.635c.063-.19.063-.254.063-.317 0-.318-.254-.445-.952-.445-.444 0-.889.064-1.206.127l-.19.064H32l.19-1.08c.763-.19 1.207-.253 1.778-.253 1.27 0 1.969.508 1.969 1.46 0 .254 0 .444-.127 1.016l-.318 1.778-.063.317-.064.254v.19l-.063.064zm-1.08-2.222h-.317c-.825 0-1.27.254-1.27.762 0 .317.19.508.508.508.635 0 1.08-.508 1.08-1.27zm5.967 2.095a6.26 6.26 0 01-1.523.19c-1.651 0-2.54-.761-2.54-2.222 0-1.714 1.08-2.92 2.603-2.92 1.207 0 1.968.698 1.968 1.777 0 .381-.063.699-.19 1.207h-2.984v.19c0 .572.444.89 1.27.89.571 0 1.016-.064 1.523-.318l-.127 1.206zm-.761-2.92v-.255c0-.38-.254-.634-.699-.634-.444 0-.825.317-.952.888h1.65z" fill="#DCE5E5"/><path d="M56.126 24.762c-.254 1.65-1.396 2.35-2.92 2.35-1.651 0-2.35-1.017-2.35-2.287 0-1.714 1.143-2.92 2.921-2.92 1.524 0 2.35 1.016 2.35 2.222v.635zm-1.587-.635c0-.508-.19-.952-.825-.952-.762 0-1.207.889-1.207 1.714 0 .635.318 1.08.826 1.08.317 0 1.016-.445 1.142-1.207.064-.254.064-.445.064-.635z" fill="#fff"/><path d="M50.92 25.397c.064-.445.128-.952.128-1.397v-.127c-.064.317-.127.635-.127 1.016-.064.127-.064.317 0 .508z" fill="#fff"/><rect x=".5" y=".5" width="79" height="47" rx="7.5" stroke="#D8D8D8"/></svg>