<svg width="80" height="48" fill="none" xmlns="http://www.w3.org/2000/svg"><path d="M33.352 31.581l2.68-15.078h4.189L37.624 31.58h-4.272z" fill="#3C58BF"/><path d="M33.352 31.581l3.434-15.078h3.435L37.624 31.58h-4.272z" fill="#293688"/><path d="M52.785 16.67c-.837-.335-2.177-.67-3.853-.67-4.188 0-7.204 2.094-7.204 5.11 0 2.262 2.094 3.434 3.77 4.188 1.675.754 2.178 1.257 2.178 1.927 0 1.005-1.34 1.508-2.514 1.508-1.675 0-2.596-.251-4.02-.838l-.587-.251-.586 3.435c1.005.418 2.848.837 4.775.837 4.44 0 7.371-2.094 7.371-5.277 0-1.76-1.089-3.1-3.602-4.189-1.508-.754-2.43-1.172-2.43-1.926 0-.67.755-1.34 2.43-1.34 1.424 0 2.43.25 3.184.586l.418.167.67-3.267z" fill="#3C58BF"/><path d="M52.785 16.67c-.837-.335-2.177-.67-3.853-.67-4.188 0-6.45 2.094-6.45 5.11 0 2.262 1.34 3.434 3.016 4.188 1.675.754 2.178 1.257 2.178 1.927 0 1.005-1.34 1.508-2.514 1.508-1.675 0-2.596-.251-4.02-.838l-.587-.251-.586 3.435c1.005.418 2.848.837 4.775.837 4.44 0 7.371-2.094 7.371-5.277 0-1.76-1.089-3.1-3.602-4.189-1.508-.754-2.43-1.172-2.43-1.926 0-.67.755-1.34 2.43-1.34 1.424 0 2.43.25 3.184.586l.418.167.67-3.267z" fill="#293688"/><path d="M59.99 16.503c-1.006 0-1.76.084-2.179 1.089l-6.283 13.99h4.524l.838-2.514h5.36l.504 2.513h4.02l-3.518-15.078H59.99zm-1.928 10.052c.252-.754 1.676-4.44 1.676-4.44s.335-.921.586-1.508l.252 1.425s.837 3.77 1.005 4.607h-3.519v-.084z" fill="#3C58BF"/><path d="M60.994 16.503c-1.005 0-1.759.084-2.178 1.089l-7.288 13.99h4.524l.838-2.514h5.36l.504 2.513h4.02l-3.518-15.078h-2.262zm-2.932 10.052c.335-.838 1.676-4.44 1.676-4.44s.335-.921.586-1.508l.252 1.425s.837 3.77 1.005 4.607h-3.519v-.084z" fill="#293688"/><path d="M25.644 27.058l-.419-2.178c-.754-2.514-3.183-5.278-5.864-6.618l3.77 13.403h4.523l6.786-15.079h-4.524l-4.272 10.472z" fill="#3C58BF"/><path d="M25.644 27.058l-.419-2.178c-.754-2.514-3.183-5.278-5.864-6.618l3.77 13.403h4.523l6.786-15.079h-3.686l-5.11 10.472z" fill="#293688"/><path d="M14 16.503l.754.167c5.361 1.257 9.047 4.44 10.471 8.21l-1.508-7.12c-.251-1.006-1.005-1.257-1.926-1.257H14z" fill="#FFBC00"/><path d="M14 16.503c5.361 1.256 9.801 4.523 11.225 8.293l-1.424-5.948c-.251-1.005-1.089-1.591-2.01-1.591L14 16.503z" fill="#F7981D"/><path d="M14 16.503c5.361 1.256 9.801 4.523 11.225 8.293l-1.005-3.267c-.251-1.005-.586-2.01-1.76-2.43L14 16.503z" fill="#ED7C00"/><path d="M29.833 26.555l-2.848-2.848-1.34 3.183-.336-2.094c-.754-2.513-3.183-5.278-5.864-6.618l3.77 13.403h4.523l2.095-5.026zm7.791 5.026l-3.602-3.686-.67 3.686h4.272zm9.633-5.194c.335.335.502.587.419.922 0 1.005-1.34 1.508-2.514 1.508-1.675 0-2.596-.252-4.02-.838l-.587-.251-.586 3.434c1.005.42 2.848.838 4.775.838 2.68 0 4.858-.754 6.115-2.094l-3.602-3.518zm4.858 5.194h3.937l.838-2.513h5.361l.503 2.513h4.02l-1.423-6.115-5.026-4.859.251 1.34s.838 3.77 1.005 4.608h-3.518c.335-.838 1.675-4.44 1.675-4.44s.335-.921.587-1.508" fill="#051244"/><rect x=".5" y=".5" width="79" height="47" rx="7.5" stroke="#D8D8D8"/></svg>